<?xml version="1.0" encoding="UTF-8" standalone="no"?>
<!-- Created with Inkscape (http://www.inkscape.org/) -->

<svg
   width="512"
   height="512"
   viewBox="0 0 512 512"
   version="1.1"
   id="svg5"
   inkscape:version="1.1.2 (b8e25be833, 2022-02-05)"
   sodipodi:docname="escargot.svg"
   xmlns:inkscape="http://www.inkscape.org/namespaces/inkscape"
   xmlns:sodipodi="http://sodipodi.sourceforge.net/DTD/sodipodi-0.dtd"
   xmlns="http://www.w3.org/2000/svg"
   xmlns:svg="http://www.w3.org/2000/svg">
  <sodipodi:namedview
     id="namedview7"
     pagecolor="#505050"
     bordercolor="#eeeeee"
     borderopacity="1"
     inkscape:pageshadow="0"
     inkscape:pageopacity="0"
     inkscape:pagecheckerboard="0"
     inkscape:document-units="px"
     showgrid="false"
     inkscape:zoom="1.1366189"
     inkscape:cx="255.58259"
     inkscape:cy="256.02249"
     inkscape:window-width="1920"
     inkscape:window-height="1009"
     inkscape:window-x="-8"
     inkscape:window-y="-8"
     inkscape:window-maximized="1"
     inkscape:current-layer="layer1" />
  <defs
     id="defs2" />
  <g
     inkscape:label="Calque 1"
     inkscape:groupmode="layer"
     id="layer1">
    <path
       style="fill:#cddc39;fill-opacity:1;fill-rule:nonzero;stroke:none"
       id="path1531"
       d="m 190.46457,217.11955 c 0.63675,-1.71791 0.7758,-3.90808 2.09456,-5.31469 0.12284,-0.13102 2.59262,-1.06278 2.77144,-1.12804 3.76656,-0.7962 6.19786,-0.50584 9.71521,0.97005 3.04076,1.18717 4.78393,2.78124 5.99219,5.78378 1.19322,4.6421 1.33775,9.4152 1.1004,14.17506 -0.31384,3.53655 -0.53878,7.14055 -1.37628,10.60545 -0.41515,1.71758 -1.07044,3.43296 -1.65244,5.09211 -1.65132,3.96207 -3.26004,8.40965 -6.47139,11.43975 -0.4027,0.37997 -0.88542,0.66501 -1.32812,0.99751 -0.63956,0.427 -1.23787,0.92342 -1.91869,1.281 -0.59349,0.31171 -1.24609,0.49623 -1.88005,0.71415 -6.04325,2.07729 -12.21077,2.74138 -18.54577,3.31467 -10.07163,0.27563 -19.88813,-1.77553 -29.05514,-5.93206 -1.75014,-0.79355 -3.42947,-1.73484 -5.14421,-2.60226 -6.21445,-3.57026 -10.82832,-7.08816 -14.46911,-13.34828 -0.64607,-1.11088 -1.13343,-2.30676 -1.70014,-3.46014 -5.27875,-12.45733 -7.59924,-25.84995 -9.4113,-39.17626 -0.95485,-7.56459 -1.51466,-15.22794 -0.56601,-22.82563 0.44173,-3.53777 1.04358,-5.74375 1.84117,-9.18387 0.71332,-2.13466 1.75958,-5.55169 2.81021,-7.57218 0.50383,-0.96895 1.17989,-1.83961 1.82234,-2.72277 1.68704,-2.31911 3.38664,-4.41188 5.45573,-6.4093 0.997,-0.96246 2.09896,-1.80989 3.14844,-2.71483 9.02881,-6.47033 19.87275,-9.44534 30.53952,-11.95787 11.78816,-2.27913 23.80301,-2.6746 35.77304,-2.59818 8.37742,0.10193 13.91799,2.32256 20.98881,6.52641 7.14222,4.92995 12.26585,11.99193 17.05319,19.09457 4.13879,6.69597 7.37336,13.93962 9.91745,21.3789 2.81479,9.05696 5.7897,18.06059 8.96707,26.99649 2.05588,5.78681 4.20802,11.51745 6.97822,17.00163 2.59488,6.38616 6.75531,11.5942 11.26185,16.71565 5.33851,5.83567 11.64416,10.63931 18.03384,15.25043 7.87917,5.58438 16.73866,9.44206 25.81831,12.58915 1.47033,0.43199 2.94066,0.86397 4.411,1.29595 14.93377,4.34439 21.07766,-16.77516 6.14388,-21.11954 v 0 c -1.14057,-0.32756 -2.28113,-0.65511 -3.4217,-0.98266 -7.06053,-2.38555 -13.95595,-5.35474 -20.0992,-9.63231 -5.0707,-3.64149 -10.10799,-7.39961 -14.40071,-11.96171 -1.98721,-2.23915 -4.30517,-4.53265 -5.75067,-7.18875 -0.43628,-0.80165 -0.78699,-1.647 -1.18485,-2.46839 -0.39926,-0.82428 -0.80433,-1.64574 -1.2065,-2.4686 -0.28822,-0.56144 -1.53365,-2.94649 -1.8287,-3.66146 -1.45784,-3.53267 -2.64491,-7.17883 -4.03129,-10.7396 -3.16034,-8.88434 -6.10051,-17.84171 -8.9129,-26.84236 -3.2402,-9.22361 -7.20418,-18.23625 -12.48146,-26.49351 -6.67853,-9.82869 -14.0626,-19.31276 -24.22515,-25.7866 -1.66329,-0.94987 -3.28697,-1.97274 -4.98989,-2.8496 -8.37572,-4.3128 -17.49433,-6.53046 -26.91114,-6.64877 -13.72673,-0.0745 -27.50423,0.45276 -40.99862,3.19631 -14.35019,3.44956 -28.24552,7.66645 -40.05415,16.91335 -1.60361,1.45279 -3.28383,2.82527 -4.81085,4.35837 -4.55671,4.57486 -8.55117,9.92677 -11.4127,15.72565 -1.58281,3.20755 -2.79349,7.54272 -3.851829,10.90732 -1.115854,4.9981 -1.725358,7.14947 -2.322517,12.37206 -1.046752,9.1546 -0.455997,18.38249 0.705373,27.49249 2.182858,15.8188 5.074393,31.70415 11.697103,46.35439 2.83651,5.2665 3.00122,6.15073 6.59409,10.70709 5.23378,6.63733 11.88905,11.61136 19.28383,15.62967 2.27538,1.11763 4.5046,2.3346 6.82615,3.35288 12.39787,5.43798 25.69964,7.97086 39.2307,7.38706 12.23217,-1.18677 24.93635,-2.76954 34.84637,-10.72429 1.23252,-1.14744 2.54531,-2.21431 3.69755,-3.44234 4.84914,-5.16811 7.83806,-11.81889 10.34517,-18.34384 1.17569,-3.48277 1.64744,-4.58988 2.46727,-8.18505 1.02566,-4.49781 1.37085,-9.14291 1.73161,-13.72752 0.3142,-8.60253 -0.14255,-17.28113 -3.59288,-25.30197 -0.70333,-1.2597 -1.32792,-2.56672 -2.11,-3.7791 -3.77117,-5.84606 -9.38726,-9.95975 -15.81455,-12.456 -1.3647,-0.47066 -2.7014,-1.03209 -4.09411,-1.41197 -7.93678,-2.16489 -15.80899,-1.4675 -23.39156,1.62345 -3.7344,2.1205 -5.46688,2.74968 -8.50001,5.91954 -3.95685,4.13522 -6.1506,9.18777 -7.48484,14.66538 -3.77212,15.08849 17.56622,20.42307 21.33834,5.33458 z" />
    <path
       style="fill:#cddc39;fill-opacity:1;fill-rule:nonzero;stroke:none"
       id="path1537"
       d="m 80.899917,309.06574 c 7.869807,1.68567 15.714502,3.49758 23.582183,5.19776 12.9864,2.82736 26.00688,5.4983 39.02981,8.15198 10.58184,2.37884 21.27363,4.26179 31.85917,6.62011 5.44299,1.21263 7.17312,1.77133 12.58229,3.27637 12.07383,3.57437 23.774,8.23645 35.47377,12.85701 9.90438,4.109 19.86964,8.02522 30.08634,11.28698 10.61677,3.66308 21.71746,5.03251 32.86121,5.75381 13.19598,0.60293 26.41295,0.59742 39.61862,0.42774 27.20586,-1.58439 54.18964,-5.851 80.81383,-11.55572 9.69706,-2.26922 19.50463,-4.64209 28.43821,-9.1897 5.30394,-2.69996 5.96027,-3.46985 10.73538,-6.95558 5.65351,-4.84652 10.55595,-10.54895 13.70525,-17.34782 1.89019,-4.08065 2.58939,-6.88928 3.9109,-11.19065 3.15931,-11.94096 5.46766,-24.07507 7.98375,-36.16016 1.87195,-8.28137 3.2383,-16.64349 4.07549,-25.08917 0.51155,-8.64386 1.09747,-17.282 1.68405,-25.92172 1.04231,-16.27026 0.4389,-32.57995 0.003,-48.85988 -0.30715,-10.87777 -0.15948,-5.6637 -0.4428,-15.6422 -0.44141,-15.54659 -22.42761,-14.92234 -21.98619,0.62425 v 0 c 0.28291,9.96426 0.13557,4.76216 0.4418,15.6063 0.41726,15.58714 1.01818,31.20303 0.0392,46.78193 -0.57144,8.42009 -1.15699,16.83788 -1.62944,25.26366 -0.74282,7.6638 -2.02345,15.24132 -3.71896,22.75419 -2.3836,11.45166 -4.57723,22.9461 -7.50415,34.27732 -0.96438,3.2602 -1.77883,6.81911 -3.49857,9.80498 -1.6264,2.82381 -3.87423,5.25417 -6.22666,7.47737 -2.8608,2.21829 -3.39823,2.82763 -6.68323,4.55776 -7.47223,3.93544 -15.8105,5.73694 -23.94714,7.70467 -25.19642,5.42779 -50.73847,9.44326 -76.4801,11.06697 -12.64734,0.16644 -25.30521,0.16967 -37.94404,-0.38572 -9.352,-0.57558 -18.67057,-1.65363 -27.574,-4.76011 -9.74802,-3.09737 -19.23149,-6.88518 -28.68335,-10.78714 -12.42043,-4.90462 -24.84931,-9.83351 -37.67685,-13.59508 -6.25258,-1.72754 -7.7322,-2.22232 -14.01735,-3.62278 -10.60176,-2.36228 -21.31028,-4.24707 -31.90827,-6.63017 -12.93937,-2.63654 -25.87638,-5.28996 -38.77938,-8.09943 -8.67597,-1.87155 -17.303035,-3.98652 -26.035612,-5.58404 -15.47567,-1.54756 -17.66426,20.33834 -2.188591,21.88591 z" />
    <path
       style="fill:#cddc39;fill-opacity:1;fill-rule:nonzero;stroke:none"
       id="path1543"
       d="m 262.20151,283.15713 c 12.10984,4.89048 24.26352,9.69644 36.64133,13.86998 9.80556,3.22361 20.0099,4.8323 30.29915,5.2174 9.17866,0.10882 15.20967,-2.72815 22.45118,-7.93741 5.2301,-4.38561 9.70452,-9.56647 13.63261,-15.12679 4.41283,-5.93759 7.08577,-12.73599 9.0765,-19.79741 1.60236,-6.3425 2.04234,-12.87693 1.96955,-19.39349 -0.16209,-7.31663 -2.3009,-14.29294 -4.5102,-21.19664 -2.01246,-5.82468 -4.26781,-11.55978 -6.63508,-17.2483 -1.57712,-4.00885 -3.40034,-7.94134 -4.21258,-12.1929 -0.44393,-3.05177 -0.42499,-6.1367 -0.0129,-9.18773 0.47095,-2.48222 1.67214,-4.74546 2.77108,-6.99614 1.33214,-2.99871 3.23869,-5.46099 5.6011,-7.70404 3.47314,-3.26768 7.88821,-5.15593 12.15283,-7.1522 4.58635,-2.03237 9.21168,-4.00071 13.9722,-5.59055 4.74033,-1.45234 9.57067,-2.6422 14.43114,-3.62429 2.27266,-0.50039 4.59004,-0.58771 6.90641,-0.62616 2.56512,-0.0232 5.13039,-0.004 7.69553,0.007 2.30508,0.0103 4.61018,0.0122 6.91527,0.0137 1.89698,0.15152 3.77256,0.58332 5.63497,1.04609 3.20395,1.08923 6.34152,2.36164 9.49143,3.60257 3.28386,1.33624 6.60044,2.58861 9.90532,3.87083 0.84766,0.38966 1.71704,0.7236 2.55421,1.1358 14.06322,6.64207 23.45653,-13.24632 9.39331,-19.8884 v 0 c -1.32224,-0.61398 -2.65289,-1.20037 -4.0008,-1.75672 -3.26765,-1.26414 -6.54364,-2.50702 -9.78996,-3.82576 -4.04738,-1.5945 -8.07893,-3.25005 -12.25423,-4.48546 -3.59016,-0.89046 -7.2147,-1.54886 -10.92017,-1.69401 -2.27812,-0.001 -4.55625,-0.003 -6.83435,-0.0135 -2.73245,-0.0118 -5.46507,-0.0329 -8.19748,-0.004 -3.65233,0.0727 -7.30333,0.29513 -10.88592,1.06424 -5.76568,1.18014 -11.50004,2.58211 -17.11422,4.34954 -5.52024,1.89445 -10.92943,4.09452 -16.2446,6.50594 -6.52787,3.06843 -13.06536,6.28154 -18.2629,11.41173 -4.05602,4.08377 -7.53366,8.45692 -9.92762,13.73461 -2.16959,4.47217 -4.20518,9.04791 -4.83509,14.03286 -0.59588,5.40796 -0.68108,10.86237 0.31793,16.23659 1.20517,5.59822 3.20287,10.92327 5.44562,16.18628 2.13146,5.11322 4.15932,10.26854 5.99145,15.49711 1.554,4.8537 3.25258,9.719 3.46636,14.86305 0.11572,4.4118 -0.21089,8.84721 -1.17754,13.1612 -1.26113,4.70391 -2.94463,9.18486 -5.93237,13.09729 -2.46541,3.6421 -5.44133,6.89693 -8.59303,9.95727 -2.67287,2.03986 -5.19052,3.85831 -8.71837,3.68426 -8.15149,-0.20838 -16.2339,-1.60087 -24.00637,-4.08231 -11.99478,-4.01971 -23.748,-8.72528 -35.48196,-13.44359 -14.44046,-5.77618 -22.60922,14.64572 -8.16876,20.4219 z" />
    <path
       style="fill:#cddc39;fill-opacity:1;fill-rule:nonzero;stroke:none"
       id="path1549"
       d="m 391.15811,129.67295 c -5.75241,-3.72541 -11.35857,-7.66301 -16.89151,-11.70539 -3.55194,-2.29156 -6.68432,-5.0508 -9.56086,-8.12826 -2.29417,-3.9944 -3.75936,-8.36303 -5.22619,-12.70704 -2.05407,-6.41642 -2.29866,-13.152071 -2.57855,-19.825037 -0.13641,-4.71907 -0.27303,-9.455943 0.0516,-14.171995 0.0893,-1.297878 0.56625,-5.025435 0.71528,-6.238037 0.417,-2.421319 0.95673,-4.828567 1.78666,-7.145078 0.0756,-0.210972 0.69886,-2.245814 1.26299,-2.378203 -0.32799,1.079926 -1.82701,1.869146 -2.87193,2.127042 1.2608,0.439738 -0.34009,-0.03048 -0.35837,-8.8e-5 -0.0992,0.164768 0.29358,0.249285 0.42816,0.386644 0.15676,0.159994 0.29631,0.335991 0.44446,0.503987 0.97437,1.515054 2.34298,2.873487 2.79136,4.668498 -0.0142,0.03122 -0.0281,0.124728 -0.0427,0.09367 -0.93034,-1.982477 0.014,-4.653762 1.26339,-6.276716 -0.90098,0.267473 -1.92363,0.627464 -3.12288,1.123547 0.47638,0.01216 -1.80333,0.615698 -1.35939,0.442497 0.89607,-0.349596 1.42749,-0.217339 2.53209,-0.255751 -15.41168,-2.090781 -18.36849,19.704629 -2.95681,21.79541 v 0 c 1.13306,0.04768 2.26609,0.18979 3.3992,0.143044 2.46499,-0.101692 4.85474,-1.006624 7.10467,-1.932417 0.8408,-0.487093 2.15785,-0.771079 2.96907,-1.112018 1.94528,-0.817564 3.75208,-1.915203 5.40834,-3.218968 0.74713,-0.683136 1.56382,-1.297231 2.2414,-2.049408 4.28715,-4.759141 5.1606,-10.459111 3.17956,-16.418758 -1.88876,-4.812261 -4.63295,-9.142612 -8.20705,-12.900268 -4.10961,-3.777683 -8.00805,-6.374441 -13.71924,-6.897273 -0.94033,-0.0477 -1.87956,-0.157888 -2.82098,-0.143101 -5.71744,0.0898 -10.75345,2.73224 -14.25966,7.219348 -0.61674,0.941137 -1.29253,1.84612 -1.8502,2.82341 -2.90978,5.099179 -4.03337,11.043139 -5.07533,16.7374 -0.96653,7.973728 -1.37608,15.977847 -0.90882,24.009532 0.37804,8.757375 0.9263,17.560815 3.72125,25.945457 2.48342,7.31214 5.08726,14.74628 10.08764,20.77386 3.82364,4.0054 7.91403,7.7217 12.55987,10.7677 5.35303,3.90777 10.73328,7.79689 16.35982,11.30461 12.27668,9.54853 25.78034,-7.81332 13.50366,-17.36184 z" />
    <path
       style="fill:#cddc39;fill-opacity:1;fill-rule:nonzero;stroke:none"
       id="path1551"
       d="m 427.39171,122.98804 c -1.68434,-4.29968 -3.01935,-8.72281 -4.38944,-13.12937 -0.98785,-3.21136 -1.48312,-6.5206 -1.78816,-9.85633 -0.31095,-3.958944 -0.24766,-7.920757 -0.0178,-11.879712 0.34695,-2.753124 0.64634,-5.535899 1.69965,-8.124168 1.04671,-2.648611 2.81185,-4.896479 4.53317,-7.132803 1.06058,-0.879683 1.85777,-3.225503 2.84739,-4.08369 0.19333,-0.167654 -0.23393,0.463825 -0.41149,0.648096 -1.62054,1.681778 -1.67408,1.379442 -4.09632,2.428952 -2.17069,0.472653 -3.80129,0.107312 -5.44904,-1.371919 1.56979,1.832896 0.99972,1.801747 0.30299,-0.409828 -0.0446,-0.372648 -0.0308,-0.757054 -0.13382,-1.117944 -0.0344,-0.120493 -0.16499,0.466571 -0.15713,0.341511 0.0376,-0.597133 0.27978,-1.001242 0.57315,-1.510247 0.0887,-0.272444 0.38744,-0.472462 0.6165,-0.663824 -13.59773,7.549387 -2.92128,26.779471 10.67644,19.230085 v 0 c 1.95388,-1.189847 3.85817,-2.401355 5.34642,-4.181743 0.56888,-0.729506 1.19014,-1.421036 1.70664,-2.188518 2.49526,-3.707747 3.33534,-8.098494 3.21424,-12.495925 -0.22516,-1.125535 -0.37703,-2.268251 -0.67549,-3.376605 -0.74204,-2.755572 -2.49715,-5.194291 -4.28622,-7.356579 -0.58051,-0.654772 -1.11536,-1.353058 -1.74152,-1.964316 -2.4993,-2.439807 -6.07031,-4.31322 -9.59945,-4.582799 -1.37647,-0.105144 -2.76091,-0.01652 -4.14137,-0.02478 -1.54006,0.496169 -3.1634,0.784435 -4.6202,1.488507 -3.42479,1.655206 -5.3582,4.845411 -7.43292,7.816629 -3.10409,4.066979 -6.0475,8.291547 -7.79839,13.145799 -1.56378,4.617487 -2.5862,9.355666 -2.93241,14.230212 -0.28625,5.070039 -0.34312,10.148655 0.0804,15.215129 0.47184,4.8434 1.23484,9.65148 2.68257,14.3108 1.64355,5.27989 3.24258,10.5853 5.368,15.697 6.43582,14.15879 26.45938,5.05717 20.02357,-9.10162 z" />
  </g>
</svg>
